<?xml version="1.0" standalone="no"?>
<!DOCTYPE svg PUBLIC "-//W3C//DTD SVG 20010904//EN"
 "http://www.w3.org/TR/2001/REC-SVG-20010904/DTD/svg10.dtd">
<svg version="1.0" xmlns="http://www.w3.org/2000/svg"
 width="1080.000000pt" height="1080.000000pt" viewBox="0 0 1080.000000 1080.000000"
 preserveAspectRatio="xMidYMid meet">
<metadata>
Created by potrace 1.11, written by Peter Selinger 2001-2013
</metadata>
<g transform="translate(0.000000,1080.000000) scale(0.100000,-0.100000)"
fill="#000000" stroke="none">
<path d="M3319 10796 c-2 -2 -31 -7 -64 -10 -52 -5 -146 -20 -160 -24 -3 -1
-6 -2 -7 -3 -2 0 -14 -2 -28 -5 -84 -15 -286 -99 -338 -141 -12 -10 -40 -31
-61 -48 -21 -16 -46 -41 -54 -55 -8 -14 -27 -38 -41 -55 -14 -16 -26 -36 -26
-42 0 -7 -5 -13 -11 -13 -5 0 -8 -4 -5 -8 3 -5 -2 -22 -10 -38 -28 -52 -40
-117 -38 -214 1 -52 3 -95 4 -95 1 0 4 -15 7 -34 8 -58 98 -281 113 -281 4 0
14 -15 21 -32 7 -18 18 -38 24 -45 5 -6 21 -28 35 -48 31 -45 105 -139 145
-184 74 -84 261 -265 346 -336 181 -150 316 -255 328 -255 5 0 11 -4 13 -9 3
-8 58 -48 191 -138 58 -39 67 -50 68 -77 0 -17 2 -42 4 -56 1 -14 6 -73 10
-131 4 -59 8 -115 8 -125 2 -16 -11 -17 -161 -17 -89 0 -165 -3 -167 -8 -8
-11 72 -76 140 -114 74 -40 132 -61 179 -64 27 -1 34 -15 40 -82 6 -60 25
-193 36 -254 5 -27 12 -68 15 -90 3 -22 7 -51 10 -65 9 -51 33 -176 39 -200 3
-14 8 -36 11 -50 3 -14 8 -36 11 -50 3 -14 7 -32 9 -40 1 -8 5 -22 8 -30 3 -8
20 -67 37 -130 18 -63 37 -121 42 -127 6 -7 8 -13 5 -13 -5 0 6 -32 33 -97 6
-13 14 -33 19 -45 9 -25 64 -135 83 -170 53 -94 147 -198 217 -242 53 -33 143
-63 241 -80 56 -9 57 -12 54 -93 -2 -42 -11 -101 -20 -132 -22 -77 -75 -201
-85 -201 -5 0 -9 -5 -9 -11 0 -14 -71 -122 -87 -132 -7 -4 -13 -12 -13 -17 0
-24 -321 -345 -480 -480 -14 -11 -45 -39 -70 -60 -64 -55 -85 -74 -132 -112
-23 -18 -71 -58 -108 -88 -37 -30 -82 -66 -101 -80 -18 -14 -62 -49 -98 -77
-36 -29 -70 -53 -74 -53 -5 0 -5 -4 -2 -10 3 -5 2 -10 -2 -10 -11 0 -50 -31
-153 -121 -250 -220 -410 -427 -560 -727 -33 -66 -60 -123 -60 -127 0 -3 -11
-31 -25 -60 -13 -30 -27 -67 -31 -82 -4 -16 -9 -32 -13 -38 -3 -5 -7 -14 -8
-20 -1 -5 -18 -63 -37 -128 -19 -64 -37 -132 -40 -150 -3 -17 -12 -66 -20
-107 -8 -41 -17 -103 -21 -137 -3 -34 -8 -71 -10 -83 -2 -11 -5 -49 -6 -85 -1
-35 -6 -70 -10 -77 -7 -10 -9 -10 -9 1 0 8 -3 12 -6 8 -3 -3 -20 7 -38 23 -17
17 -36 30 -42 30 -5 0 -19 8 -30 18 -43 39 -284 138 -320 131 -5 -1 -12 0 -16
1 -19 6 -31 8 -69 9 -22 0 -38 4 -35 9 2 4 7 28 11 52 3 25 8 56 10 70 8 49
24 156 30 200 4 24 8 47 10 50 1 3 6 30 9 61 4 31 9 67 12 80 2 13 7 39 9 57
3 17 8 49 11 70 3 20 7 51 9 67 3 17 7 41 10 55 2 14 7 48 11 75 3 28 7 52 9
55 4 6 17 106 19 135 1 11 4 23 9 26 4 3 46 5 93 4 46 -1 87 2 90 7 3 5 10 6
15 2 34 -20 264 70 352 138 82 63 207 218 207 255 0 7 4 13 8 13 5 0 14 15 20
33 6 17 22 62 35 100 14 37 23 67 21 67 -2 0 0 10 5 23 15 38 41 208 47 303 9
145 2 437 -11 491 -3 12 -8 44 -10 70 -8 71 -11 95 -18 128 -4 17 -9 46 -12
65 -5 37 -19 109 -29 150 -3 14 -9 39 -12 57 -6 29 -9 32 -67 42 -165 28 -173
29 -227 36 -25 3 -56 8 -70 11 -14 3 -32 6 -40 6 -8 0 -44 6 -80 13 -36 7 -72
13 -80 13 -8 0 -26 3 -40 6 -14 3 -43 7 -65 10 -22 2 -47 7 -55 9 -8 3 -37 8
-65 11 -50 6 -90 13 -90 16 0 1 -16 3 -35 4 -19 2 -55 7 -80 11 -25 4 -76 13
-115 19 l-70 12 -44 -71 c-89 -142 -206 -374 -262 -520 -11 -27 -24 -59 -29
-70 -21 -47 -71 -213 -68 -225 1 -3 -4 -15 -10 -27 -7 -12 -14 -37 -17 -55 -5
-36 -13 -73 -15 -73 -1 0 -3 -16 -5 -35 -3 -19 -8 -65 -13 -102 -12 -95 -6
-239 13 -327 10 -42 18 -80 19 -86 0 -5 3 -12 6 -15 3 -3 11 -23 19 -45 16
-46 86 -156 127 -200 82 -87 231 -176 350 -210 32 -10 60 -18 62 -20 1 -1 -2
-24 -7 -51 -5 -27 -12 -68 -16 -91 -13 -89 -14 -99 -19 -123 -6 -31 -37 -215
-42 -255 -3 -16 -6 -37 -8 -45 -8 -41 -60 -346 -72 -430 -3 -19 -8 -46 -10
-60 -3 -14 -7 -38 -9 -55 -2 -16 -6 -38 -8 -47 -1 -9 -30 -36 -62 -61 -33 -24
-76 -63 -95 -87 -19 -24 -40 -48 -45 -54 -26 -27 -85 -137 -105 -194 -38 -116
-34 -252 11 -346 11 -22 19 -45 19 -52 0 -7 3 -14 8 -16 4 -1 19 -21 34 -43
15 -22 39 -52 53 -68 25 -26 26 -30 16 -80 -6 -28 -13 -68 -15 -87 -3 -19 -7
-44 -9 -55 -3 -11 -8 -38 -11 -61 l-7 -40 -67 -1 c-130 0 -234 -22 -310 -64
-17 -10 -32 -16 -32 -13 0 4 -7 0 -16 -7 -9 -7 -26 -18 -37 -24 -21 -10 -37
-47 -20 -44 4 1 10 0 13 -1 7 -2 26 -6 125 -25 50 -9 99 -19 110 -21 28 -6
136 -24 160 -27 11 -1 25 -5 30 -8 6 -4 18 -5 28 -4 9 2 17 0 17 -3 0 -4 14
-8 30 -9 51 -3 64 -5 106 -14 22 -4 61 -11 85 -14 24 -3 51 -7 59 -10 8 -2 42
-7 75 -10 58 -6 100 -12 100 -15 0 0 27 -3 61 -5 78 -6 79 6 4 83 -47 48 -177
144 -199 148 -3 0 -23 8 -43 18 -41 17 -43 26 -28 91 5 22 12 56 15 75 3 19 7
36 9 38 2 1 35 -13 74 -33 39 -19 77 -35 86 -35 18 0 33 -14 88 -81 169 -205
471 -521 677 -709 52 -47 99 -90 105 -95 6 -6 56 -48 111 -94 55 -46 115 -96
132 -111 18 -16 33 -25 33 -22 0 4 4 2 8 -3 4 -6 27 -26 52 -45 25 -19 50 -39
55 -43 6 -5 48 -35 95 -67 47 -32 91 -64 98 -70 6 -6 12 -7 12 -3 0 4 4 3 8
-2 4 -6 26 -22 50 -38 23 -15 59 -38 80 -51 114 -74 395 -214 502 -251 6 -2
59 -23 80 -32 8 -3 24 -8 35 -10 11 -1 29 -7 40 -12 27 -12 136 -41 180 -48
11 -1 54 -9 95 -17 55 -11 134 -14 295 -11 121 1 229 5 240 8 11 2 47 8 80 12
33 5 67 9 75 11 51 9 205 47 280 69 30 9 65 19 78 22 12 3 25 9 28 14 3 5 12
9 21 9 16 0 274 109 283 119 3 3 28 17 55 31 28 13 53 29 57 35 4 5 8 6 8 2 0
-5 7 -1 16 7 8 9 22 16 30 16 8 0 14 4 14 8 0 5 11 14 25 20 20 9 184 129 282
206 15 12 33 16 51 13 43 -8 86 -17 102 -22 8 -3 33 -7 55 -10 22 -4 51 -8 65
-11 237 -42 705 -52 892 -19 13 3 43 7 68 9 52 5 178 30 265 53 33 8 67 16 75
18 8 2 53 16 100 31 47 15 91 27 98 27 6 0 12 4 12 9 0 4 7 8 15 8 21 0 151
55 266 112 53 26 101 48 107 48 6 0 12 3 14 8 2 4 38 27 81 52 42 24 86 52 97
62 10 10 23 18 28 18 4 0 17 7 27 15 11 9 49 37 85 62 36 26 67 50 70 53 3 3
32 27 65 55 95 79 223 203 309 300 14 17 34 39 44 50 10 11 45 54 78 95 32 41
63 78 69 82 5 4 6 8 2 8 -5 0 8 20 27 44 20 23 36 46 36 50 0 4 5 12 10 19 13
15 54 79 110 172 40 66 179 345 185 369 1 6 6 20 10 31 26 64 48 122 50 135 2
8 4 16 5 18 2 1 3 5 5 10 1 4 4 14 7 22 11 29 47 165 53 199 3 19 9 39 12 44
3 5 7 28 9 51 1 22 3 41 4 41 2 0 8 40 19 125 11 92 12 411 0 477 -4 26 -11
66 -13 88 -5 39 -7 52 -21 125 -13 71 -67 265 -96 344 -17 44 -32 89 -34 100
-2 10 -10 25 -17 34 -7 8 -12 16 -10 16 10 3 -127 291 -159 337 -10 14 -16 28
-13 31 2 3 -2 11 -11 18 -8 7 -15 19 -15 26 0 8 -4 14 -8 14 -5 0 -14 16 -22
35 -8 19 -17 35 -20 35 -4 0 -17 20 -29 45 -12 25 -26 45 -31 45 -5 0 -12 10
-16 23 -4 12 -10 24 -13 27 -3 3 -19 25 -35 50 -70 109 -357 477 -451 576 -5
6 -53 58 -105 114 -52 57 -148 157 -213 224 -65 66 -150 156 -190 200 -111
122 -154 172 -215 251 -25 33 -51 65 -57 71 -5 6 -17 22 -25 34 -8 13 -25 35
-37 50 -13 15 -23 32 -23 38 0 6 -3 12 -8 14 -7 3 -71 98 -119 178 -63 103
-164 314 -178 372 l-7 26 54 -5 c87 -10 493 -4 493 7 0 1 14 3 30 5 72 6 216
50 297 90 91 46 152 97 226 190 16 20 51 103 67 160 32 108 17 308 -30 415 -2
3 -6 16 -11 30 -11 37 -108 224 -136 264 -34 49 -130 178 -145 196 -107 131
-341 363 -474 470 -24 19 -64 52 -89 73 -25 20 -49 41 -55 45 -134 103 -216
162 -225 162 -5 0 -10 4 -10 9 0 5 -17 20 -37 32 -21 13 -40 26 -43 29 -3 4
-10 9 -15 11 -6 2 -36 22 -66 44 -55 39 -56 42 -73 115 -9 41 -18 83 -21 93
-3 9 -7 25 -9 36 -12 52 -92 237 -137 316 -85 149 -211 306 -325 405 -96 83
-187 150 -204 150 -6 0 -10 5 -10 10 0 6 -6 10 -14 10 -8 0 -16 3 -18 8 -4 10
-168 94 -168 86 0 -4 -9 1 -20 11 -11 10 -20 15 -20 10 0 -4 -6 -3 -12 2 -17
13 -161 68 -170 65 -5 -1 -8 3 -8 10 0 6 -3 9 -6 6 -3 -4 -20 -2 -37 4 -90 28
-165 46 -264 63 -135 23 -402 23 -513 0 -14 -3 -36 -7 -50 -10 -14 -3 -36 -7
-50 -10 -69 -14 -205 -64 -290 -106 -90 -45 -98 -47 -140 -38 -24 6 -58 16
-75 23 -36 16 -166 56 -201 62 -14 3 -44 11 -67 18 -23 7 -64 19 -92 25 -27 7
-66 16 -85 22 -81 21 -296 62 -332 63 -16 1 -28 4 -28 8 0 3 -15 6 -32 7 -18
0 -42 2 -53 5 -12 2 -48 7 -80 11 -33 4 -71 9 -85 12 -30 6 -525 15 -531 9z"/>
</g>
</svg>
