<svg xmlns="http://www.w3.org/2000/svg" xmlns:xlink="http://www.w3.org/1999/xlink" viewBox="0 0 338.89 134.61"><defs><style>.cls-1,.cls-2{fill:none;}.cls-1{clip-rule:evenodd;}.cls-3{fill:#ebddd5;}.cls-4{fill:#fff;}.cls-5{fill:#1d4354;}.cls-6{fill:#bf9d8a;}.cls-7{fill:#f08142;}.cls-8{clip-path:url(#clip-path);}.cls-9{clip-path:url(#clip-path-2);}.cls-10{fill:#cdab95;}.cls-11{clip-path:url(#clip-path-3);}.cls-12{fill:#1e1f22;}</style><clipPath id="clip-path"><path class="cls-1" d="M253.4,95.91c-.53,0-1,.44-1.48,1.3a8.13,8.13,0,0,0-.69,3.75h4.41a10,10,0,0,0-.7-3.65C254.53,96.38,254,95.91,253.4,95.91Zm-115.69-.29-3,7.61h6.1Zm92.49,4.31a21.63,21.63,0,0,0-2.46,2.19,4.68,4.68,0,0,0-.82,2.77v.3a3.16,3.16,0,0,0,.57,1.91,1.57,1.57,0,0,0,1.23.78,1.35,1.35,0,0,0,1.06-.49,1.93,1.93,0,0,0,.42-1.31Zm90.4,0a21.17,21.17,0,0,0-2.45,2.19,4.61,4.61,0,0,0-.82,2.77v.3a3.16,3.16,0,0,0,.57,1.91,1.54,1.54,0,0,0,1.22.78,1.32,1.32,0,0,0,1.06-.49,1.93,1.93,0,0,0,.42-1.31Zm-134.86,0a21.63,21.63,0,0,0-2.46,2.19,4.68,4.68,0,0,0-.82,2.77v.3a3.16,3.16,0,0,0,.57,1.91,1.57,1.57,0,0,0,1.23.78,1.32,1.32,0,0,0,1.05-.49,1.88,1.88,0,0,0,.43-1.31Zm108.21-4c-.48,0-.9.44-1.27,1.32a9.91,9.91,0,0,0-.56,3.73,14.56,14.56,0,0,0,1,5.68c.67,1.58,1.41,2.38,2.22,2.38.47,0,.9-.44,1.27-1.33a10.13,10.13,0,0,0,.55-3.72,14.76,14.76,0,0,0-1-5.68C295.52,96.71,294.77,95.91,294,95.91Zm-52-.08v0c-.7.25-1.11.61-1.21,1.08a2.68,2.68,0,0,0,.31,1.7l2.12,5.44,2-5.26a2.83,2.83,0,0,0,.27-1.84,1.66,1.66,0,0,0-1.2-1.12v0h2.8v0a11.8,11.8,0,0,0-1.58,3.2l-3.89,10h-.05l-4.15-10a9.65,9.65,0,0,0-1.74-3.18v0Zm-22.82,0a4.63,4.63,0,0,1,2.7.73,3.59,3.59,0,0,1,1.31,2.63L220,100.93a9,9,0,0,0-.37-3.39c-.32-.93-.78-1.39-1.4-1.39h0v9.67a6.4,6.4,0,0,0,.24,2,2.12,2.12,0,0,0,1.16,1.19V109H213V109a2.19,2.19,0,0,0,1.16-1.19,6.4,6.4,0,0,0,.24-2V99.06a6.4,6.4,0,0,0-.24-2A2.16,2.16,0,0,0,213,95.89v-.06ZM265,90.55v15.27a6.4,6.4,0,0,0,.24,2,2.19,2.19,0,0,0,1.16,1.19V109h-6.55V109A2.15,2.15,0,0,0,261,107.8a6.4,6.4,0,0,0,.24-2v-12a6.49,6.49,0,0,0-.24-2,2.18,2.18,0,0,0-1.16-1.19v0Zm-53,0,.45,4.81h-.06a10.42,10.42,0,0,0-2-3.37,3.48,3.48,0,0,0-2.55-1.07h-1.61v14.9a3.53,3.53,0,0,0,.53,1.9,3.32,3.32,0,0,0,1.43,1.27V109h-8.09V109a3.26,3.26,0,0,0,1.45-1.27,3.45,3.45,0,0,0,.53-1.9V90.92h-1.63A3.49,3.49,0,0,0,197.9,92a10.42,10.42,0,0,0-2,3.37h0l.42-4.81Zm-72.42-.42L146,104.92c.93,2.17,1.88,3.52,2.83,4.07V109h-8.43V109c1.58-.58,2-1.73,1.37-3.43l-.79-2h-6.42l-.79,2c-.67,1.67-.2,2.81,1.43,3.41V109H131V109a8.62,8.62,0,0,0,2.36-3.59l6.15-15.27Zm25.84.42v11l3.41-3.15c.58-.6.78-1.11.59-1.53a2.18,2.18,0,0,0-1.49-1v-.06h6v.06a12.11,12.11,0,0,0-4.86,2.85l-1,1,3.78,5.68q2.08,3.16,2.91,3.62V109h-6.24V109a1.06,1.06,0,0,0,.52-.87,1.92,1.92,0,0,0-.21-.94c-.15-.27-.42-.73-.81-1.36l-2.59-4.12v4.12a6.4,6.4,0,0,0,.24,2,2.15,2.15,0,0,0,1.16,1.19V109h-6.55V109a2.15,2.15,0,0,0,1.16-1.19,6.4,6.4,0,0,0,.24-2v-12a6.49,6.49,0,0,0-.24-2,2.18,2.18,0,0,0-1.16-1.19v0Zm165.88,0v15.27a6.4,6.4,0,0,0,.24,2A2.19,2.19,0,0,0,332.7,109V109h-6.55V109a2.12,2.12,0,0,0,1.16-1.19,6.4,6.4,0,0,0,.24-2v-12a6.49,6.49,0,0,0-.24-2,2.15,2.15,0,0,0-1.16-1.19v0Zm-51.59,0v0a3.32,3.32,0,0,0-1.43,1.27,3.53,3.53,0,0,0-.53,1.9v14.9h3.15a4.4,4.4,0,0,0,1.91-.41,5.52,5.52,0,0,0,1.52-1,7.79,7.79,0,0,0,1.2-1.56,16.67,16.67,0,0,0,.94-1.81c.25-.58.5-1.25.77-2h.05l-.56,7.18H271.62V109a3.28,3.28,0,0,0,1.46-1.27,3.53,3.53,0,0,0,.53-1.9v-12a3.53,3.53,0,0,0-.53-1.9,3.34,3.34,0,0,0-1.46-1.27v0ZM186,95.65a3.56,3.56,0,0,1,2.65.86,3,3,0,0,1,.84,2.23v7.08a6.78,6.78,0,0,0,.23,2,2.17,2.17,0,0,0,1.17,1.19V109h-5.1v-1.58a5.91,5.91,0,0,1-3.46,1.71,3.12,3.12,0,0,1-3.36-3.14,3.06,3.06,0,0,1,.77-2.19,12.44,12.44,0,0,1,2.69-2,14.79,14.79,0,0,0,2.75-1.94,2.53,2.53,0,0,0,.71-1.84,2.41,2.41,0,0,0-.41-1.45,1.28,1.28,0,0,0-1.12-.58c-.93,0-2.53,1-4.78,3l-.05,0,2.19-2.93A25.22,25.22,0,0,1,186,95.65Zm134.86,0a3.57,3.57,0,0,1,2.66.86,3.07,3.07,0,0,1,.83,2.23v7.08a6.4,6.4,0,0,0,.24,2A2.15,2.15,0,0,0,325.7,109V109h-5.1v-1.58a5.88,5.88,0,0,1-3.46,1.71,3.12,3.12,0,0,1-3.35-3.14,3.06,3.06,0,0,1,.76-2.19,12.56,12.56,0,0,1,2.7-2A15.15,15.15,0,0,0,320,99.94a2.53,2.53,0,0,0,.71-1.84,2.48,2.48,0,0,0-.41-1.45,1.29,1.29,0,0,0-1.12-.58c-.94,0-2.53,1-4.79,3l-.05,0,2.19-2.93A25.32,25.32,0,0,1,320.81,95.65Zm-90.4,0a3.6,3.6,0,0,1,2.66.86,3.07,3.07,0,0,1,.83,2.23v7.08a6.4,6.4,0,0,0,.24,2A2.12,2.12,0,0,0,235.3,109V109h-5.1v-1.58a5.91,5.91,0,0,1-3.46,1.71,3.12,3.12,0,0,1-3.36-3.14,3.06,3.06,0,0,1,.77-2.19,12.56,12.56,0,0,1,2.7-2,14.62,14.62,0,0,0,2.74-1.94,2.74,2.74,0,0,0,.31-3.29,1.31,1.31,0,0,0-1.13-.58c-.93,0-2.52,1-4.78,3l-.05,0,2.19-2.93A25.22,25.22,0,0,1,230.41,95.65Zm78.07,0a4.86,4.86,0,0,1,2.65.79,5.28,5.28,0,0,1,1.92,2.3l-4.2,2.09-.06,0a6.24,6.24,0,0,0,.25-3.09c-.16-1.11-.56-1.66-1.2-1.66s-.95.41-1.3,1.24a9.32,9.32,0,0,0-.55,3.65,6.13,6.13,0,0,0,1.13,4,3.36,3.36,0,0,0,2.62,1.32,4.61,4.61,0,0,0,3.52-1.64l.05,0a7.79,7.79,0,0,1-2,3.1,4.53,4.53,0,0,1-3.23,1.47,5.56,5.56,0,0,1-4-1.76,7.75,7.75,0,0,1,.16-10A6,6,0,0,1,308.48,95.62ZM254,95.6a4.68,4.68,0,0,1,3.54,1.54,6.43,6.43,0,0,1,1.61,4.19h-7.87a5.35,5.35,0,0,0,1.31,3.76,3.81,3.81,0,0,0,2.78,1.23,5.1,5.1,0,0,0,3.52-1.69l.05,0a8,8,0,0,1-1.95,3.23,4.48,4.48,0,0,1-3.31,1.39,5.47,5.47,0,0,1-4-1.77,6.86,6.86,0,0,1-1.75-5.05,7.87,7.87,0,0,1,.56-3,5.93,5.93,0,0,1,1.44-2.16A6.47,6.47,0,0,1,251.81,96,5.6,5.6,0,0,1,254,95.6Zm-99.78,0a19.09,19.09,0,0,1,4.49.76l.21,4.34h-.05a16.51,16.51,0,0,0-2.41-3.61,3.5,3.5,0,0,0-2.61-1.15,2.62,2.62,0,0,0-1.72.59,1.86,1.86,0,0,0-.71,1.5,1.41,1.41,0,0,0,.23.8,2.27,2.27,0,0,0,.88.68c.42.21.79.37,1.1.5s.83.31,1.54.55a9,9,0,0,1,3.31,1.76,4.18,4.18,0,0,1-.34,6,5.7,5.7,0,0,1-3.42,1,29.11,29.11,0,0,1-5.07-.74l-.32-5.33h0c.26.6.48,1.06.64,1.38s.45.81.84,1.44a8.46,8.46,0,0,0,1.1,1.5,5.51,5.51,0,0,0,1.35,1,3.58,3.58,0,0,0,1.69.44,2.86,2.86,0,0,0,1.76-.54,2,2,0,0,0,.73-1.71,1.61,1.61,0,0,0-.12-.63,1.58,1.58,0,0,0-.47-.57c-.22-.18-.43-.33-.6-.45a6.16,6.16,0,0,0-.92-.42l-1-.37-1.16-.41a7.63,7.63,0,0,1-3.12-1.74,4,4,0,0,1,.61-5.51A5.79,5.79,0,0,1,154.17,95.6Zm140.44,0a6.08,6.08,0,0,1,2.16.42,7.74,7.74,0,0,1,2.09,1.21,5.81,5.81,0,0,1,1.6,2.16,7.29,7.29,0,0,1,.62,3,6.58,6.58,0,0,1-2,5,6.29,6.29,0,0,1-4.45,1.85,6,6,0,0,1-2.15-.42,7.61,7.61,0,0,1-2.08-1.22,5.68,5.68,0,0,1-1.59-2.15,7.14,7.14,0,0,1-.63-3.05,6.61,6.61,0,0,1,2-5A6.25,6.25,0,0,1,294.61,95.6Z"/></clipPath><clipPath id="clip-path-2"><rect class="cls-2" x="-228.18" y="-430.97" width="1038.31" height="996.24"/></clipPath><clipPath id="clip-path-3"><path class="cls-1" d="M200.66,39.57l-9,22.65h18.17Zm-51.28,0-9,22.65H158.5Zm160.29-15.1v.16a9.94,9.94,0,0,0-4.25,3.77,10.56,10.56,0,0,0-1.57,5.67V78.43h9.36a13.41,13.41,0,0,0,5.7-1.22,16.54,16.54,0,0,0,4.53-3A22.11,22.11,0,0,0,327,69.54a48.17,48.17,0,0,0,2.79-5.39q1.1-2.55,2.28-6h.16l-1.66,21.4h-45v-.16a9.81,9.81,0,0,0,4.33-3.77,10.47,10.47,0,0,0,1.57-5.67V34.07a10.47,10.47,0,0,0-1.57-5.67,9.81,9.81,0,0,0-4.33-3.77v-.16ZM155,23.21l19,44.05q3.74,8.67,7.53,11.53,3.51-3.17,6.31-10.12l18.33-45.46h.15l19,44.05q4.17,9.67,8.42,12.11v.16h-25.1v-.16q7.08-2.59,4.09-10.22l-2.36-5.82H191.14l-2.36,5.89q-3,7.48,4.25,10.15v.16H157.24v-.16q7.08-2.59,4.09-10.22L159,63.33H139.86l-2.36,5.89q-3,7.48,4.25,10.15v.16H129.48v-.16q3.93-3.06,7-10.7L154.8,23.21Zm127,1.26,1.33,14.31h-.15q-2.83-6.84-6-10a10.33,10.33,0,0,0-7.59-3.19h-4.8V69.93a10.5,10.5,0,0,0,1.57,5.66,9.9,9.9,0,0,0,4.25,3.78v.16H246.43v-.16a9.77,9.77,0,0,0,4.33-3.78,10.42,10.42,0,0,0,1.57-5.66V25.57h-4.87a10.27,10.27,0,0,0-7.52,3.19q-3.18,3.18-6,10h-.16L235,24.47Z"/></clipPath></defs><g id="Layer_2" data-name="Layer 2"><g id="Layer_5" data-name="Layer 5"><path class="cls-3" d="M95.43,61.68c-7.55-7.55-9.88-13.15-10.52-15.19a35.85,35.85,0,0,0,3.61.2c5.52,0,9.12-1.53,10.55-4.52h0c2.58-5.4-2.15-14.1-16.92-23.86a19.75,19.75,0,0,0-11.74-15C62.85-.14,56,.79,51.47,3.55A67.49,67.49,0,0,0,37.61.27c-9.12-1-15.23.74-17.2,4.86C19,8,19.13,13,27.38,20.44a73.58,73.58,0,0,0,8.53,6.5c.05,1.08.16,2.66.33,4.53l-.3,0h-4a7.37,7.37,0,0,0,4.54,2.38c.92,8.2,3.12,19.69,8.27,21.4a14,14,0,0,0,2.65.61c.2,1.49,0,4.86-4.36,9.19a101.78,101.78,0,0,1-9.67,8.47C29,77,25.56,79.72,22.66,85.53a33,33,0,0,0-3.51,14,17.29,17.29,0,0,0-2.86-1.84A9.65,9.65,0,0,0,12,96.6l2.08-13.31c.35,0,.7,0,1,0a9,9,0,0,0,7-2.81c5.57-6,2.27-19.68,2.13-20.26l-.24-1L9.41,56.92l-.53.84c-.32.5-7.8,12.38-4.45,19.88,1.16,2.59,3.41,4.33,6.68,5.17L8.66,97.5a7,7,0,0,0-1.36,1c-2.86,2.86-3,5.42-2.61,7.07A7.13,7.13,0,0,0,6.75,109l-.63,3.77a10.06,10.06,0,0,0-2.44.11,8.86,8.86,0,0,0-3.63,1.43l0,.3c2.18.49,4.39.82,6.59,1.23s4.41.7,6.64.94l0-.3a9.1,9.1,0,0,0-3-2.51,10.42,10.42,0,0,0-1.24-.55L9.46,111a18.18,18.18,0,0,0,2.47,1.09c2.41,3,18.86,22.56,34.24,22.56h.18a31.24,31.24,0,0,0,20.31-7.71,42,42,0,0,0,9.57,1.15c13.2,0,24.82-6.67,31.72-18.77C116.66,94.06,112.68,78.93,95.43,61.68Z"/><path class="cls-4" d="M10.37,58.65,23,60.71s5.83,23.6-9.92,21S10.37,58.65,10.37,58.65Z"/><path class="cls-5" d="M55.94,70.45c-1.92,2.28-3.66,4.38-6,7-3.84,4.3-9.53,10.59-10,12-1.23,3.69-1.13,9.87,3,14,3.45,3.45,4,10.13,4,13,2.43-.81,7.81-3.49,9.35-8.1a52.41,52.41,0,0,0,1.45-7.19C59.07,93,60.89,81.79,68.26,78.42a11.24,11.24,0,0,1,9.65-.31l.55.26a57.84,57.84,0,0,0-3.63-6l-.5-.74c-.33-.49-1.06-1.71-1.39-2.23-2.14,1.18-5,2-11,2h-1C59.9,71.28,57.45,71.46,55.94,70.45Z"/><path class="cls-6" d="M97.24,40.86c-3.46,7.23-24.08,3.13-44.68-6.7s-34.73-21.81-31.28-29S44.92.05,65.52,9.88,100.69,33.62,97.24,40.86Z"/><path class="cls-7" d="M46.15,117.45s1.12-7.82-3.35-12.28-5.88-11.4-4.47-15.64C39.45,86.18,56.2,69.42,58.44,65s-2.24-13.4-2.24-13.4a11.25,11.25,0,0,1-7.79,2.85h0s2.22,5-4.48,11.67C33.8,76.19,28.28,77.24,23.81,86.18A30,30,0,0,0,20.63,103c1.47,1.27,4.42,3.69,9.88,7.78C40.93,118.57,46.15,117.45,46.15,117.45Z"/><path class="cls-7" d="M6.12,70c.3-.17,1.07,1.64,3,2,1.65.31,2.05-.82,4-1,2.69-.25,3.36,1.76,7,2,2,.13,1.71-.42,2,0,.92,1.32-2.78,10.35-11,8C4.12,79,5.44,70.33,6.12,70Z"/><path class="cls-6" d="M49.52,6.91C53,3.22,60.53.55,69.63,4.68A18.57,18.57,0,0,1,80.8,22.55S78.86,36.66,57.34,25.9C43.94,19.2,46,10.67,49.52,6.91Z"/><path class="cls-7" d="M64.46,39.47c-.18,11.41,6.89,24.34,11.35,31S87,86.15,80.28,104c-3.25,8.67-7.76,16-13.56,21.21,15.62,3.91,31.57-1.35,40.37-16.74,8.94-15.64,3.39-30.12-12.29-45.8-10-10-11.17-17.87-11.17-17.87L64.94,39.45Z"/><path d="M95.43,61.68c-7.55-7.55-9.88-13.15-10.52-15.19a35.85,35.85,0,0,0,3.61.2c5.52,0,9.12-1.53,10.55-4.52h0c2.58-5.4-2.15-14.1-16.92-23.86a19.75,19.75,0,0,0-11.74-15C62.85-.14,56,.79,51.47,3.55A67.49,67.49,0,0,0,37.61.27c-9.12-1-15.23.74-17.2,4.86C19,8,19.13,13,27.38,20.44a73.58,73.58,0,0,0,8.53,6.5c.05,1.08.16,2.66.33,4.53l-.3,0h-4a7.37,7.37,0,0,0,4.54,2.38c.92,8.2,3.12,19.69,8.27,21.4a14,14,0,0,0,2.65.61c.2,1.49,0,4.86-4.36,9.19a101.78,101.78,0,0,1-9.67,8.47C29,77,25.56,79.72,22.66,85.53a33,33,0,0,0-3.51,14,17.29,17.29,0,0,0-2.86-1.84A9.65,9.65,0,0,0,12,96.6l2.08-13.31c.35,0,.7,0,1,0a9,9,0,0,0,7-2.81c5.57-6,2.27-19.68,2.13-20.26l-.24-1L9.41,56.92l-.53.84c-.32.5-7.8,12.38-4.45,19.88,1.16,2.59,3.41,4.33,6.68,5.17L8.66,97.5a7,7,0,0,0-1.36,1c-2.86,2.86-3,5.42-2.61,7.07A7.13,7.13,0,0,0,6.75,109l-.63,3.77a10.06,10.06,0,0,0-2.44.11,8.86,8.86,0,0,0-3.63,1.43l0,.3c2.18.49,4.39.82,6.59,1.23s4.41.7,6.64.94l0-.3a9.1,9.1,0,0,0-3-2.51,10.42,10.42,0,0,0-1.24-.55L9.46,111a18.18,18.18,0,0,0,2.47,1.09c2.41,3,18.86,22.56,34.24,22.56h.18a31.24,31.24,0,0,0,20.31-7.71,42,42,0,0,0,9.57,1.15c13.2,0,24.82-6.67,31.72-18.77C116.66,94.06,112.68,78.93,95.43,61.68ZM7.17,76.41c-2.06-4.6,1.62-12.58,3.73-16.2L21.5,62c.85,4.1,1.78,12.84-1.64,16.54-1.5,1.63-3.72,2.17-6.79,1.67S8.08,78.43,7.17,76.41ZM69.17,6A16.93,16.93,0,0,1,79.48,22.32a7.41,7.41,0,0,1-3.78,5.14c-3.75,1.95-9.81.94-17.52-2.92-5.56-2.78-8.85-6.16-9.5-9.77a8.17,8.17,0,0,1,2.1-6.85C54.13,4.34,61.11,2.36,69.17,6ZM29.39,18.21c-5.36-4.84-7.59-9-6.27-11.79C24.18,4.21,27.72,3,32.9,3a40.68,40.68,0,0,1,4.39.25A70.59,70.59,0,0,1,48.86,5.61c-.09.09-.19.17-.27.26a11.06,11.06,0,0,0-2.86,9.43c.58,3.19,3,7.86,11.11,11.93,5.6,2.8,10.41,4.2,14.39,4.2a12.42,12.42,0,0,0,5.91-1.34,10.49,10.49,0,0,0,5.32-7.42s0-.13,0-.32c10,7.07,16.08,13.95,13.89,18.53h0c-2.78,5.82-21.92,2.49-42.68-7.41C43.55,28.63,34.92,23.21,29.39,18.21Zm16.3,34.18C42.11,51.19,39.78,38.81,39,29a143.52,143.52,0,0,0,13.35,7.22c3.42,1.63,6.81,3.09,10.14,4.38.2,10,5.45,20.59,9,26.75-1.86,1-5.93,2.83-9.89,2.17a12.48,12.48,0,0,1-3.63-1A18.47,18.47,0,0,0,60,65.65c2.5-5-1.74-13.76-2.23-14.75l-.93-1.83-1.47,1.44A9.69,9.69,0,0,1,45.69,52.39ZM73.14,69.87c.38.6.72,1.12,1,1.52l.5.75a56.51,56.51,0,0,1,3.63,6c-2.17-1.14-5.67-2-10.21,0-7.36,3.37-9.18,14.57-10.51,22.75a52.5,52.5,0,0,1-1.46,7.19c-1.53,4.6-5.69,6.62-8.12,7.43,0-2.86-.47-7.92-3.91-11.37C39.91,100,38.71,93.71,39.94,90c.47-1.41,5.72-7.3,9.56-11.61,2.42-2.71,4.77-5.34,6.65-7.59a14.14,14.14,0,0,0,5,1.6,13.26,13.26,0,0,0,2.24.18A21.13,21.13,0,0,0,73.14,69.87ZM54.86,67.68c-2,2.49-4.92,5.75-7.6,8.75C41.37,83,37.73,87.18,37.09,89.08c-1.49,4.48-.31,12,4.83,17.17,2.88,2.88,3.1,7.52,3,9.75-1.93-.18-6.39-1.21-13.34-6.43-4.92-3.69-7.79-6-9.36-7.34a29.52,29.52,0,0,1,3.1-15.36c2.61-5.22,5.51-7.53,9.9-11a106,106,0,0,0,9.92-8.69c4.83-4.83,5.43-9,5.24-11.31a12.83,12.83,0,0,0,5.4-1.94c1.23,3,2.75,7.86,1.48,10.4Zm-8.54,63.93h-.15c-13.32,0-28.49-17.34-31.59-21.06l-3.64-5.1v1a5.83,5.83,0,0,0,.4,2.11c-2.07-1-3.41-2.28-3.73-3.64-.38-1.64.77-3.22,1.81-4.26A3.59,3.59,0,0,1,12,99.59c3.06,0,6.4,3.27,6.44,3.31s2.41,2.38,11.33,9.07c7.77,5.84,12.84,6.93,15.25,7l1.37,0,.12,0h0c.07,0,.47-.08,1.08-.23h0c2.61-.65,9-2.92,11.26-9.71a54.65,54.65,0,0,0,1.57-7.65c1.22-7.51,2.89-17.8,8.8-20.5A8.33,8.33,0,0,1,77,80.79a8.17,8.17,0,0,1,3.84,4.68c.85,4.73.48,10.54-2.35,18.08C69.81,126.56,56.21,131.51,46.32,131.61Zm59-23.81c-7.52,13.15-21.11,19.32-36,16.6,4.81-4.93,8.85-11.58,11.93-19.8,2.61-7,3.26-12.64,2.81-17.38h.09l-.23-1.48c0-.27-.11-.53-.17-.8-1.12-6.23-4.12-10.72-6.63-14.46l-.49-.74c-2.5-3.75-10.32-16.34-11-28a93.67,93.67,0,0,0,16,4.36l.37.06c.65,2.51,3.06,9.38,11.38,17.69C109.67,80.17,113.38,93.74,105.35,107.8Z"/><g class="cls-8"><g class="cls-9"><rect class="cls-10" x="124.84" y="83.94" width="214.05" height="31.58"/></g></g><g class="cls-11"><g class="cls-9"><rect class="cls-12" x="123.29" y="17.02" width="215.15" height="68.69"/></g></g></g></g></svg>