<svg xmlns="http://www.w3.org/2000/svg" viewBox="0 0 112.41 134.61"><defs><style>.cls-1{fill:#ebddd5;}.cls-2{fill:#fff;}.cls-3{fill:#1d4354;}.cls-4{fill:#bf9d8a;}.cls-5{fill:#f08142;}</style></defs><g id="Layer_2" data-name="Layer 2"><g id="Layer_5" data-name="Layer 5"><path class="cls-1" d="M95.43,61.68c-7.55-7.55-9.88-13.15-10.52-15.19a35.85,35.85,0,0,0,3.61.2c5.52,0,9.12-1.53,10.55-4.52h0c2.58-5.4-2.15-14.1-16.92-23.86a19.75,19.75,0,0,0-11.74-15C62.85-.14,56,.79,51.47,3.55A67.49,67.49,0,0,0,37.61.27c-9.12-1-15.23.74-17.2,4.86C19,8,19.13,13,27.38,20.44a73.58,73.58,0,0,0,8.53,6.5c.05,1.08.16,2.66.33,4.53l-.3,0h-4a7.37,7.37,0,0,0,4.54,2.38c.92,8.2,3.12,19.69,8.27,21.4a14,14,0,0,0,2.65.61c.2,1.49,0,4.86-4.36,9.19a101.78,101.78,0,0,1-9.67,8.47C29,77,25.56,79.72,22.66,85.53a33,33,0,0,0-3.51,14,17.29,17.29,0,0,0-2.86-1.84A9.65,9.65,0,0,0,12,96.6l2.08-13.31c.35,0,.7,0,1,0a9,9,0,0,0,7-2.81c5.57-6,2.27-19.68,2.13-20.26l-.24-1L9.41,56.92l-.53.84c-.32.5-7.8,12.38-4.45,19.88,1.16,2.59,3.41,4.33,6.68,5.17L8.66,97.5a7,7,0,0,0-1.36,1c-2.86,2.86-3,5.42-2.61,7.07A7.13,7.13,0,0,0,6.75,109l-.63,3.77a10.06,10.06,0,0,0-2.44.11,8.86,8.86,0,0,0-3.63,1.43l0,.3c2.18.49,4.39.82,6.59,1.23s4.41.7,6.64.94l0-.3a9.1,9.1,0,0,0-3-2.51,10.42,10.42,0,0,0-1.24-.55L9.46,111a18.18,18.18,0,0,0,2.47,1.09c2.41,3,18.86,22.56,34.24,22.56h.18a31.24,31.24,0,0,0,20.31-7.71,42,42,0,0,0,9.57,1.15c13.2,0,24.82-6.67,31.72-18.77C116.66,94.06,112.68,78.93,95.43,61.68Z"/><path class="cls-2" d="M10.37,58.65,23,60.71s5.83,23.6-9.92,21S10.37,58.65,10.37,58.65Z"/><path class="cls-3" d="M55.94,70.45c-1.92,2.28-3.66,4.38-6,7-3.84,4.3-9.53,10.59-10,12-1.23,3.69-1.13,9.87,3,14,3.45,3.45,4,10.13,4,13,2.43-.81,7.81-3.49,9.35-8.1a52.41,52.41,0,0,0,1.45-7.19C59.07,93,60.89,81.79,68.26,78.42a11.24,11.24,0,0,1,9.65-.31l.55.26a57.84,57.84,0,0,0-3.63-6l-.5-.74c-.33-.49-1.06-1.71-1.39-2.23-2.14,1.18-5,2-11,2h-1C59.9,71.28,57.45,71.46,55.94,70.45Z"/><path class="cls-4" d="M97.24,40.86c-3.46,7.23-24.08,3.13-44.68-6.7s-34.73-21.81-31.28-29S44.92.05,65.52,9.88,100.69,33.62,97.24,40.86Z"/><path class="cls-5" d="M46.15,117.45s1.12-7.82-3.35-12.28-5.88-11.4-4.47-15.64C39.45,86.18,56.2,69.42,58.44,65s-2.24-13.4-2.24-13.4a11.25,11.25,0,0,1-7.79,2.85h0s2.22,5-4.48,11.67C33.8,76.19,28.28,77.24,23.81,86.18A30,30,0,0,0,20.63,103c1.47,1.27,4.42,3.69,9.88,7.78C40.93,118.57,46.15,117.45,46.15,117.45Z"/><path class="cls-5" d="M6.12,70c.3-.17,1.07,1.64,3,2,1.65.31,2.05-.82,4-1,2.69-.25,3.36,1.76,7,2,2,.13,1.71-.42,2,0,.92,1.32-2.78,10.35-11,8C4.12,79,5.44,70.33,6.12,70Z"/><path class="cls-4" d="M49.52,6.91C53,3.22,60.53.55,69.63,4.68A18.57,18.57,0,0,1,80.8,22.55S78.86,36.66,57.34,25.9C43.94,19.2,46,10.67,49.52,6.91Z"/><path class="cls-5" d="M64.46,39.47c-.18,11.41,6.89,24.34,11.35,31S87,86.15,80.28,104c-3.25,8.67-7.76,16-13.56,21.21,15.62,3.91,31.57-1.35,40.37-16.74,8.94-15.64,3.39-30.12-12.29-45.8-10-10-11.17-17.87-11.17-17.87L64.94,39.45Z"/><path d="M95.43,61.68c-7.55-7.55-9.88-13.15-10.52-15.19a35.85,35.85,0,0,0,3.61.2c5.52,0,9.12-1.53,10.55-4.52h0c2.58-5.4-2.15-14.1-16.92-23.86a19.75,19.75,0,0,0-11.74-15C62.85-.14,56,.79,51.47,3.55A67.49,67.49,0,0,0,37.61.27c-9.12-1-15.23.74-17.2,4.86C19,8,19.13,13,27.38,20.44a73.58,73.58,0,0,0,8.53,6.5c.05,1.08.16,2.66.33,4.53l-.3,0h-4a7.37,7.37,0,0,0,4.54,2.38c.92,8.2,3.12,19.69,8.27,21.4a14,14,0,0,0,2.65.61c.2,1.49,0,4.86-4.36,9.19a101.78,101.78,0,0,1-9.67,8.47C29,77,25.56,79.72,22.66,85.53a33,33,0,0,0-3.51,14,17.29,17.29,0,0,0-2.86-1.84A9.65,9.65,0,0,0,12,96.6l2.08-13.31c.35,0,.7,0,1,0a9,9,0,0,0,7-2.81c5.57-6,2.27-19.68,2.13-20.26l-.24-1L9.41,56.92l-.53.84c-.32.5-7.8,12.38-4.45,19.88,1.16,2.59,3.41,4.33,6.68,5.17L8.66,97.5a7,7,0,0,0-1.36,1c-2.86,2.86-3,5.42-2.61,7.07A7.13,7.13,0,0,0,6.75,109l-.63,3.77a10.06,10.06,0,0,0-2.44.11,8.86,8.86,0,0,0-3.63,1.43l0,.3c2.18.49,4.39.82,6.59,1.23s4.41.7,6.64.94l0-.3a9.1,9.1,0,0,0-3-2.51,10.42,10.42,0,0,0-1.24-.55L9.46,111a18.18,18.18,0,0,0,2.47,1.09c2.41,3,18.86,22.56,34.24,22.56h.18a31.24,31.24,0,0,0,20.31-7.71,42,42,0,0,0,9.57,1.15c13.2,0,24.82-6.67,31.72-18.77C116.66,94.06,112.68,78.93,95.43,61.68ZM7.17,76.41c-2.06-4.6,1.62-12.58,3.73-16.2L21.5,62c.85,4.1,1.78,12.84-1.64,16.54-1.5,1.63-3.72,2.17-6.79,1.67S8.08,78.43,7.17,76.41ZM69.17,6A16.93,16.93,0,0,1,79.48,22.32a7.41,7.41,0,0,1-3.78,5.14c-3.75,1.95-9.81.94-17.52-2.92-5.56-2.78-8.85-6.16-9.5-9.77a8.17,8.17,0,0,1,2.1-6.85C54.13,4.34,61.11,2.36,69.17,6ZM29.39,18.21c-5.36-4.84-7.59-9-6.27-11.79C24.18,4.21,27.72,3,32.9,3a40.68,40.68,0,0,1,4.39.25A70.59,70.59,0,0,1,48.86,5.61c-.09.09-.19.17-.27.26a11.06,11.06,0,0,0-2.86,9.43c.58,3.19,3,7.86,11.11,11.93,5.6,2.8,10.41,4.2,14.39,4.2a12.42,12.42,0,0,0,5.91-1.34,10.49,10.49,0,0,0,5.32-7.42s0-.13,0-.32c10,7.07,16.08,13.95,13.89,18.53h0c-2.78,5.82-21.92,2.49-42.68-7.41C43.55,28.63,34.92,23.21,29.39,18.21Zm16.3,34.18C42.11,51.19,39.78,38.81,39,29a143.52,143.52,0,0,0,13.35,7.22c3.42,1.63,6.81,3.09,10.14,4.38.2,10,5.45,20.59,9,26.75-1.86,1-5.93,2.83-9.89,2.17a12.48,12.48,0,0,1-3.63-1A18.47,18.47,0,0,0,60,65.65c2.5-5-1.74-13.76-2.23-14.75l-.93-1.83-1.47,1.44A9.69,9.69,0,0,1,45.69,52.39ZM73.14,69.87c.38.6.72,1.12,1,1.52l.5.75a56.51,56.51,0,0,1,3.63,6c-2.17-1.14-5.67-2-10.21,0-7.36,3.37-9.18,14.57-10.51,22.75a52.5,52.5,0,0,1-1.46,7.19c-1.53,4.6-5.69,6.62-8.12,7.43,0-2.86-.47-7.92-3.91-11.37C39.91,100,38.71,93.71,39.94,90c.47-1.41,5.72-7.3,9.56-11.61,2.42-2.71,4.77-5.34,6.65-7.59a14.14,14.14,0,0,0,5,1.6,13.26,13.26,0,0,0,2.24.18A21.13,21.13,0,0,0,73.14,69.87ZM54.86,67.68c-2,2.49-4.92,5.75-7.6,8.75C41.37,83,37.73,87.18,37.09,89.08c-1.49,4.48-.31,12,4.83,17.17,2.88,2.88,3.1,7.52,3,9.75-1.93-.18-6.39-1.21-13.34-6.43-4.92-3.69-7.79-6-9.36-7.34a29.52,29.52,0,0,1,3.1-15.36c2.61-5.22,5.51-7.53,9.9-11a106,106,0,0,0,9.92-8.69c4.83-4.83,5.43-9,5.24-11.31a12.83,12.83,0,0,0,5.4-1.94c1.23,3,2.75,7.86,1.48,10.4Zm-8.54,63.93h-.15c-13.32,0-28.49-17.34-31.59-21.06l-3.64-5.1v1a5.83,5.83,0,0,0,.4,2.11c-2.07-1-3.41-2.28-3.73-3.64-.38-1.64.77-3.22,1.81-4.26A3.59,3.59,0,0,1,12,99.59c3.06,0,6.4,3.27,6.44,3.31s2.41,2.38,11.33,9.07c7.77,5.84,12.84,6.93,15.25,7l1.37,0,.12,0h0c.07,0,.47-.08,1.08-.23h0c2.61-.65,9-2.92,11.26-9.71a54.65,54.65,0,0,0,1.57-7.65c1.22-7.51,2.89-17.8,8.8-20.5A8.33,8.33,0,0,1,77,80.79a8.17,8.17,0,0,1,3.84,4.68c.85,4.73.48,10.54-2.35,18.08C69.81,126.56,56.21,131.51,46.32,131.61Zm59-23.81c-7.52,13.15-21.11,19.32-36,16.6,4.81-4.93,8.85-11.58,11.93-19.8,2.61-7,3.26-12.64,2.81-17.38h.09l-.23-1.48c0-.27-.11-.53-.17-.8-1.12-6.23-4.12-10.72-6.63-14.46l-.49-.74c-2.5-3.75-10.32-16.34-11-28a93.67,93.67,0,0,0,16,4.36l.37.06c.65,2.51,3.06,9.38,11.38,17.69C109.67,80.17,113.38,93.74,105.35,107.8Z"/></g></g></svg>