<svg xmlns="http://www.w3.org/2000/svg" width="27" height="26" viewBox="0 0 27 26">
    <g fill="none" fill-rule="evenodd" transform="translate(.5)">
        <circle cx="13" cy="13" r="10.833" fill="#FFF"/>
        <path fill="#F08142" fill-rule="nonzero" d="M13 23.833c3.086-.067 5.646-1.119 7.68-3.153s3.086-4.594 3.153-7.68c-.067-3.086-1.119-5.646-3.153-7.68S16.086 2.234 13 2.167c-3.086.067-5.646 1.119-7.68 3.153S2.234 9.914 2.167 13c.067 3.086 1.119 5.646 3.153 7.68s4.594 3.086 7.68 3.153zm4.069-12.715l-2.187-2.187 1.068-1.119c.102-.102.237-.152.407-.152.17 0 .322.05.458.152l1.373 1.373c.237.306.237.594 0 .865l-1.12 1.068zM9.897 18.34H7.66v-2.237l6.56-6.562 2.239 2.238-6.562 6.561z"/>
    </g>
</svg>
