<svg xmlns="http://www.w3.org/2000/svg" width="32" height="32" viewBox="0 0 32 32">
    <path fill="#1D4354" d="M16 28.667c3.608-.08 6.6-1.309 8.98-3.687 2.378-2.38 3.607-5.372 3.687-8.98-.08-3.608-1.309-6.6-3.687-8.98C22.6 4.642 19.608 3.413 16 3.333c-3.608.08-6.6 1.309-8.98 3.687C4.642 9.4 3.413 12.392 3.333 16c.08 3.608 1.309 6.6 3.687 8.98 2.38 2.378 5.372 3.607 8.98 3.687zm0-2.498c-2.894-.08-5.293-1.07-7.196-2.973C6.901 21.293 5.91 18.894 5.831 16c.08-2.894 1.07-5.293 2.973-7.196C10.707 6.901 13.106 5.91 16 5.831c2.894.08 5.293 1.07 7.196 2.973 1.903 1.903 2.894 4.302 2.973 7.196-.08 2.894-1.07 5.293-2.973 7.196-1.903 1.903-4.302 2.894-7.196 2.973zm0-6.363l6.363-6.363H9.637L16 19.806z"/>
</svg>
