<svg xmlns="http://www.w3.org/2000/svg" width="26" height="26" viewBox="0 0 26 26">
    <path fill="#BF9D8A" d="M13 23.833c3.086-.067 5.646-1.119 7.68-3.153s3.086-4.594 3.153-7.68c-.067-3.086-1.119-5.646-3.153-7.68S16.086 2.234 13 2.167c-3.086.067-5.646 1.119-7.68 3.153S2.234 9.914 2.167 13c.067 3.086 1.119 5.646 3.153 7.68s4.594 3.086 7.68 3.153zm0-2.136c-2.475-.068-4.527-.915-6.154-2.543C5.218 17.527 4.37 15.475 4.303 13c.068-2.475.915-4.527 2.543-6.154C8.473 5.218 10.525 4.37 13 4.303c2.475.068 4.527.915 6.154 2.543 1.628 1.627 2.475 3.679 2.543 6.154-.068 2.475-.915 4.527-2.543 6.154-1.627 1.628-3.679 2.475-6.154 2.543zm0-5.442l5.442-5.442H7.558L13 16.255z"/>
</svg>
