<svg xmlns="http://www.w3.org/2000/svg" width="26" height="26" viewBox="0 0 26 26">
    <g fill="none" fill-rule="evenodd">
        <g>
            <g transform="translate(-868 -867) translate(868 867)">
                <circle cx="13" cy="13" r="10.833" fill="#FFF"/>
                <path fill="#F08142" fill-rule="nonzero" d="M13 2.167c3.086.067 5.646 1.119 7.68 3.153s3.086 4.594 3.153 7.68c-.067 3.086-1.119 5.646-3.153 7.68s-4.594 3.086-7.68 3.153c-3.086-.067-5.646-1.119-7.68-3.153S2.234 16.086 2.167 13c.067-3.086 1.119-5.646 3.153-7.68S9.914 2.234 13 2.167zm-.228 4.875l-1.762 4.157-4.51.384 3.424 2.966-1.028 4.41 3.876-2.34 3.875 2.34-1.027-4.41 3.424-2.966-4.51-.384-1.762-4.157z"/>
            </g>
        </g>
    </g>
</svg>
