<?xml version="1.0" encoding="UTF-8"?>
<svg width="60px" height="60px" viewBox="0 0 60 60" version="1.1" xmlns="http://www.w3.org/2000/svg" xmlns:xlink="http://www.w3.org/1999/xlink">
    <title>foodie-founder-unlocked</title>
    <defs>
        <linearGradient x1="8.55769733%" y1="20.1186722%" x2="91.3023406%" y2="79.2388068%" id="linearGradient-1">
            <stop stop-color="#BF9D8A" offset="0%"></stop>
            <stop stop-color="#BF9D8A" stop-opacity="0" offset="100%"></stop>
        </linearGradient>
        <circle id="path-2" cx="30" cy="30" r="30"></circle>
    </defs>
    <g id="Influencer-Flow" stroke="none" stroke-width="1" fill="none" fill-rule="evenodd">
        <g id="Profile---Recommendation-Badge-Transition" transform="translate(-992.000000, -809.000000)">
            <g id="Group-12" transform="translate(0.000000, 706.000000)">
                <g id="Group-10-Copy" transform="translate(907.000000, 83.000000)">
                    <g id="Group-4" transform="translate(65.000000, 0.000000)">
                        <g id="foodie-founder-unlocked" transform="translate(20.000000, 20.000000)">
                            <mask id="mask-3" fill="white">
                                <use xlink:href="#path-2"></use>
                            </mask>
                            <g id="Badge-1">
                                <use fill="#1D4354" xlink:href="#path-2"></use>
                                <circle stroke="#F08142" stroke-width="2" stroke-linejoin="square" fill-opacity="0.25" fill="url(#linearGradient-1)" cx="30" cy="30" r="29"></circle>
                            </g>
                            <path d="M24.0511145,26.6381095 L28.0590896,22.6301343 L18.1170453,12.7022524 C15.9077021,14.9115956 15.9077021,18.4946971 18.1170453,20.7182027 L24.0511145,26.6381095 L24.0511145,26.6381095 Z M33.6532599,24.0747049 C35.8201157,25.0802393 38.8650438,24.3721164 41.1168743,22.1202859 C43.8219035,19.4152567 44.3459144,15.5347437 42.2640333,13.4528626 C40.1963147,11.385144 36.3158016,11.8949924 33.59661,14.6000216 C31.3447795,16.8518521 30.6366567,19.8967803 31.6421911,22.0636361 L17.8196337,35.8861934 L19.81654,37.8830998 L29.5744724,28.1534923 L39.3182424,37.8972622 L41.3151487,35.9003559 L31.5713788,26.1565859 L33.6532599,24.0747049 Z" id="Shape" fill="#F08142" fill-rule="nonzero" mask="url(#mask-3)"></path>
                            <path d="M38.7274222,54.1510763 L38.7274222,59.5712603 L31.9521922,59.5712603 L31.9521922,54.1510763 L38.7274222,54.1510763 Z M28.0478078,54.1510763 L28.0478078,59.5712603 L21.2725778,59.5712603 L21.2725778,54.1510763 L28.0478078,54.1510763 Z M48.6199355,36.535546 C49.1409507,36.535546 49.5677902,36.9623855 49.5677902,37.4840782 C49.5677902,38.1277251 49.4593865,38.7578215 49.2432567,39.3608169 L46.8644734,46.0269657 C46.5053862,47.0236021 45.7939871,47.8298544 44.8522301,48.2973453 L39.7775828,50.8312813 C38.9110309,51.2716713 38.1786285,51.9627447 37.6704863,52.796098 L33.3072382,52.796098 L33.3072382,48.5615793 C33.3072382,46.8271204 34.2557704,45.2281661 35.7801971,44.3948128 L40.0418168,42.0709089 C40.1840966,41.9963814 40.3399269,41.95573 40.4957572,41.95573 C41.0174499,41.95573 41.4375142,42.3757943 41.4375142,42.897487 C41.4375142,43.7308403 40.9767985,44.4761156 40.2315232,44.8487532 L39.459147,45.2342638 C38.2606088,45.8379368 37.1691193,46.6238635 36.2138118,47.5723957 L37.6704863,47.2235001 C39.0344105,46.2822796 38.9713305,46.5628864 40.0418168,46.0269657 C40.8921308,45.4987688 41.4375312,45.2346703 41.6780179,45.2346703 L42.5147758,45.0045835 C43.8427208,44.7403496 44.9470833,43.8324687 45.468776,42.5858264 L47.7459308,37.1182158 C47.8943084,36.7659038 48.2330699,36.535546 48.6199355,36.535546 Z M11.3800645,36.535546 C11.7669301,36.535546 12.1056916,36.7659038 12.2540692,37.1182158 L12.2540692,37.1182158 L14.531224,42.5858264 C15.0529167,43.8324687 16.1572792,44.7403496 17.4852242,45.0045835 L17.4852242,45.0045835 L18.3219821,45.2346703 C18.5624688,45.2346703 19.1078692,45.4987688 19.9581832,46.0269657 C21.0286695,46.5628864 20.9655895,46.2822796 22.3295137,47.2235001 L22.3295137,47.2235001 L23.7861882,47.5723957 C22.8308807,46.6238635 21.7393912,45.8379368 20.540853,45.2342638 L20.540853,45.2342638 L19.7684768,44.8487532 C19.0232015,44.4761156 18.5624858,43.7308403 18.5624858,42.897487 C18.5624858,42.3757943 18.9825501,41.95573 19.5042428,41.95573 C19.6600731,41.95573 19.8159034,41.9963814 19.9581832,42.0709089 L19.9581832,42.0709089 L24.2198029,44.3948128 C25.7442296,45.2281661 26.6927618,46.8271204 26.6927618,48.5615793 L26.6927618,48.5615793 L26.6927618,52.796098 L22.3295137,52.796098 C21.8213715,51.9627447 21.0889691,51.2716713 20.2224172,50.8312813 L20.2224172,50.8312813 L15.1477699,48.2973453 C14.2060129,47.8298544 13.4946138,47.0236021 13.1355266,46.0269657 L13.1355266,46.0269657 L10.7567433,39.3608169 C10.5406135,38.7578215 10.4322098,38.1277251 10.4322098,37.4840782 C10.4322098,36.9623855 10.8590493,36.535546 11.3800645,36.535546 Z" id="Combined-Shape" fill="#F08142" mask="url(#mask-3)"></path>
                        </g>
                    </g>
                </g>
            </g>
        </g>
    </g>
</svg>