<svg xmlns="http://www.w3.org/2000/svg" xmlns:xlink="http://www.w3.org/1999/xlink" width="24" height="26" viewBox="0 0 24 26">
    <defs>
        <path id="prefix__a" d="M12 7.5c1.238 0 2.25-1.013 2.25-2.25S13.238 3 12 3 9.75 4.013 9.75 5.25 10.762 7.5 12 7.5zm0 2.25c-1.238 0-2.25 1.012-2.25 2.25s1.012 2.25 2.25 2.25 2.25-1.012 2.25-2.25S13.238 9.75 12 9.75zm0 6.75c-1.238 0-2.25 1.012-2.25 2.25S10.762 21 12 21s2.25-1.012 2.25-2.25S13.238 16.5 12 16.5z"/>
    </defs>
    <g fill="none" fill-rule="evenodd" transform="translate(0 1.103)">
        <use fill="#CDAB95" transform="rotate(90 12 12)" xlink:href="#prefix__a"/>
    </g>
</svg>
