<svg xmlns="http://www.w3.org/2000/svg" width="56" height="56" viewBox="0 0 56 56">
    <g fill="none" fill-rule="evenodd">
        <path fill="#FE8E00" d="M44.663 21.342L41.4 18.07c.223-.365.427-.747.596-1.147 1.609.693 2.667 2.276 2.667 4.071v.347zM44.93 26.63l-5.823-5.821c.454-.391.871-.81 1.254-1.263l5.822 5.823c.169.177.258.39.258.63s-.09.463-.258.632c-.338.338-.916.338-1.253 0M24.218 50.888v-2.097c2.053-.373 4.142-.57 6.222-.57v-1.777l1.6-2.018c1.21.952 1.956 2.409 1.956 4.028 0 2.817-2.285 5.1-5.093 5.1H23.31c.56-.746.907-1.66.907-2.666" transform="translate(3.733)"/>
        <path fill="#FE8E00" d="M32.04 44.426l-1.6 2.018c-2.08 0-4.16.186-6.222.542v-1.448c.845-.64 1.458-1.556 1.69-2.623 1.422.054 2.844.24 4.23.587.712.178 1.36.498 1.903.924M31.267 35.058l-1.751-1.05.027-.933 1.786.036h1.778c0-2 .871-3.893 2.391-5.191l1.974-1.69c.862-.746 1.457-1.741 1.715-2.826l3.102 3.102-.826 1.103c-.738.977-1.387 2.035-1.938 3.129l-1.12 2.24c-.862 1.724-2.596 2.8-4.533 2.8-.916 0-1.823-.25-2.605-.72M27.125 22.035c-.605 1.485-1.618 2.774-2.907 3.725v-2.73c.516-.64.933-1.35 1.236-2.124.515.427 1.075.8 1.67 1.13" transform="translate(3.733)"/>
        <path fill="#D3313E" d="M32.218 21.555c-4.898 0-8.889-3.99-8.889-8.889 0-4.897 3.991-8.888 8.89-8.888 2.95 0 5.555 1.448 7.172 3.662-1.59-1.191-3.564-1.885-5.644-1.885h-.64c-4.409 0-8 3.591-8 8 0 3.431 2.791 6.223 6.222 6.223 3.431 0 6.222-2.792 6.222-6.223 0-2.453-1.99-4.444-4.515-4.444-1.165 0-2.267.453-3.093 1.28-.818.827-1.28 1.92-1.28 3.093v.098c0 1.458 1.173 2.64 2.666 2.64 1.476 0 2.667-1.2 2.667-2.667v-.889h-1.778v.89c0 .488-.391.888-.942.888-.462 0-.836-.373-.836-.862v-.098c0-.693.276-1.342.765-1.84.489-.489 1.138-.755 1.91-.755.73 0 1.396.302 1.876.782.49.48.783 1.155.783 1.884 0 2.454-1.991 4.445-4.445 4.445-2.444 0-4.444-1.991-4.444-4.445 0-3.43 2.79-6.222 6.222-6.222h.64c3.378 0 6.382 2.24 7.36 5.458-.071 4.844-4.027 8.764-8.889 8.764M24.04 19.493c-.337 1.36-1.102 2.524-2.15 3.36-.818-1.333-2.276-2.187-3.894-2.187v-1.778h5.582c.143.205.294.41.463.605" transform="translate(3.733)"/>
        <path fill="#FE8E00" d="M6.983 43.227c1.147 2.187 3.582 3.529 6.169 3.155l5.59-.792.17.081c-.311.39-.587.808-.818 1.263l-.587 1.172-4.737-.95c-2.365-.471-4.8-.712-7.218-.712v1.778c2.302 0 4.613.232 6.87.685l6.072 1.209 1.191-2.383c.258-.525.622-.97 1.04-1.37.276.045.551.08.827.08.31 0 .604-.025.889-.087v4.532c0 1.468-1.191 2.667-2.667 2.667H7.098c-2.808 0-5.102-2.284-5.102-5.101 0-2.348 1.591-4.384 3.867-4.952l1.12-.275z" transform="translate(3.733)"/>
        <path fill="#FFF" d="M20.663 29.555v-4.017c.64-.223 1.235-.516 1.777-.89v8.463c0 .489-.39.889-.889.889-.488 0-.888-.4-.888-.89v-3.555z" transform="translate(3.733)"/>
        <path fill="#FE8E00" d="M21.551 35.777c1.476 0 2.667-1.2 2.667-2.667v-5.243c.738-.419 1.422-.917 2.036-1.494 1.857 1.272 3.884 2.204 6.044 2.8-.622 1.21-.969 2.55-.969 3.937l-1.786-.035c0-.311.008-.621.008-.925v-1.706h-1.777v1.706c0 3.023-.223 6.063-.65 9.058-.4-.035-.808-.062-1.208-.07-.409-2.036-2.205-3.583-4.365-3.583v-1.778z" transform="translate(3.733)"/>
        <path fill="#FE8E00" d="M18.787 38.39l-2.515-.621c-.552-.143-1.12-.214-1.69-.214h-.275l-.24-1.43c-.373-2.25-1.68-4.267-3.573-5.53l-.987 1.476c1.493.995 2.516 2.578 2.809 4.347l.231 1.368c-1.191.303-2.284.916-3.173 1.805l-1.53.355L6.6 34.57c-.106-.445-.16-.898-.16-1.351 0-2.41 1.432-4.578 3.645-5.53l.818-.346c1.262.88 2.72 1.493 4.329 1.76l.097.018v.435c0 1.467 1.2 2.667 2.667 2.667.32 0 .613-.062.889-.16v1.049c0 1.467 1.2 2.667 2.667 2.667v1.777c-.712 0-1.432.17-2.08.49l-.685.346z" transform="translate(3.733)"/>
        <path fill="#363940" d="M23.942 5.955c-.542-1.28-1.804-2.178-3.28-2.178V2h.09c1.91 0 3.742.8 5.057 2.16-.684.524-1.315 1.12-1.867 1.795M20.663 9.11h-1.778V7.334c0-.978.8-1.778 1.778-1.778.986 0 1.777.8 1.777 1.778s-.79 1.778-1.777 1.778" transform="translate(3.733)"/>
        <path fill="#D3313E" d="M20.37 23.75c-.739.303-1.539.472-2.374.472-.836 0-1.627-.17-2.365-.471.516-.8 1.387-1.307 2.365-1.307.986 0 1.866.507 2.373 1.307M17.996 18.889v1.777c-1.609 0-3.067.854-3.885 2.178-1.2-.96-2.044-2.364-2.266-3.955h6.15z" transform="translate(3.733)"/>
        <path fill="#FFF" d="M17.107 25.946c.293.036.596.054.889.054.302 0 .604-.018.889-.054v3.61c0 .488-.391.888-.89.888-.488 0-.888-.4-.888-.889v-3.609z" transform="translate(3.733)"/>
        <path fill="#000" d="M11.774 15.333c0-1.467 1.2-2.667 2.666-2.667 1.476 0 2.667 1.2 2.667 2.667h-1.778c0-.489-.39-.889-.889-.889-.489 0-.889.4-.889.89h-1.777z" transform="translate(3.733)"/>
        <path fill="#FE8E00" d="M8.218 18.738c0-1.387.542-2.685 1.52-3.663l.258-.266v-2.685c0-1.466.88-2.764 2.24-3.306l.515-.205c.96 1.378 2.56 2.276 4.356 2.276h3.556c.382 0 .737-.071 1.084-.187-.124.64-.196 1.298-.196 1.965-1.466 0-2.666 1.2-2.666 2.666h1.778c0-.489.4-.889.888-.889.063 0 .116.018.17.027.16.924.435 1.813.817 2.64H9.996V18c0 3.475 2.231 6.435 5.333 7.538v1.777c-4.124-.782-7.11-4.355-7.11-8.577m6.221-6.071c-1.466 0-2.666 1.2-2.666 2.666h1.777c0-.489.4-.889.89-.889.497 0 .888.4.888.89h1.778c0-1.467-1.191-2.667-2.667-2.667M8.174 41.378l-.329-1.431 1.529-.357 1.253 1.263c.978-.977 2.285-1.52 3.662-1.52h.294c.426 0 .853.054 1.262.15l3.147.793 1.28-.64c.39-.197.835-.303 1.28-.303 1.475 0 2.666 1.2 2.666 2.666 0 1.468-1.19 2.667-2.666 2.667-.445 0-.89-.106-1.28-.302l-1.236-.613-6.133.87c-.196.028-.4.045-.605.045-1.982 0-3.68-1.35-4.124-3.288" transform="translate(3.733)"/>
        <path fill="#363940" d="M8.422 10.693c-.133-.551-.204-1.111-.204-1.671C8.218 5.155 11.374 2 15.249 2h5.413v1.777c-1.955 0-3.555 1.592-3.555 3.556h1.778v1.778h-1.778c-1.956 0-3.556-1.591-3.556-3.556h-1.777c0 .507.08.987.213 1.45l-.409.16c-1.582.63-2.72 1.946-3.156 3.528" transform="translate(3.733)"/>
        <path fill="#FE8E00" d="M8.218 12.666v1.423c-.462.524-.835 1.102-1.129 1.724-.4-.329-.649-.827-.649-1.369 0-.978.8-1.778 1.778-1.778" transform="translate(3.733)"/>
        <path fill="#000" d="M8.422 10.693c.436-1.582 1.574-2.898 3.156-3.529l.409-.16c-.133-.462-.213-.942-.213-1.449h1.777c0 1.965 1.6 3.556 3.556 3.556H20.662c.987 0 1.778-.8 1.778-1.778s-.79-1.778-1.778-1.778c-.977 0-1.777.8-1.777 1.778h-1.778c0-1.964 1.6-3.556 3.555-3.556 1.476 0 2.738.898 3.28 2.178.552-.675 1.183-1.27 1.867-1.795C24.494 2.8 22.662 2 20.751 2H15.25c-3.875 0-7.031 3.155-7.031 7.022 0 .56.071 1.12.204 1.671zm-.204 8.044c0 4.223 2.987 7.796 7.111 8.578v-1.778C12.227 24.435 9.996 21.475 9.996 18v-.89h12.542c-.382-.826-.658-1.715-.818-2.64-.053-.008-.106-.026-.169-.026-.489 0-.889.4-.889.889h-1.777c0-1.467 1.2-2.667 2.666-2.667 0-.666.071-1.324.196-1.964-.347.115-.702.187-1.085.187h-3.555c-1.796 0-3.396-.898-4.356-2.276l-.515.204c-1.36.543-2.24 1.84-2.24 3.307v2.685l-.258.266c-.978.978-1.52 2.276-1.52 3.662zm0-4.648v-1.423c-.978 0-1.778.8-1.778 1.778 0 .542.25 1.04.65 1.369.292-.622.666-1.2 1.128-1.724zm-.044 27.29c.444 1.936 2.142 3.287 4.124 3.287.204 0 .409-.017.604-.044l6.134-.871 1.235.613c.391.197.836.302 1.28.302 1.476 0 2.667-1.2 2.667-2.666 0-1.467-1.191-2.667-2.667-2.667-.444 0-.889.107-1.28.303l-1.28.64-3.146-.792c-.41-.098-.836-.151-1.263-.151h-.293c-1.378 0-2.684.542-3.662 1.52l-1.253-1.262c.888-.89 1.982-1.502 3.173-1.805l-.231-1.369c-.294-1.768-1.316-3.35-2.81-4.346l.988-1.476c1.893 1.263 3.2 3.28 3.573 5.53l.24 1.43h.275c.57 0 1.138.071 1.69.214l2.515.622.684-.346c.65-.32 1.37-.49 2.08-.49 2.16 0 3.956 1.547 4.365 3.582.4.01.809.036 1.209.072.426-2.996.649-6.036.649-9.058v-1.707h1.777v1.707c0 .302-.009.613-.009.924l-.026.934 1.75 1.048c.783.472 1.69.72 2.605.72 1.938 0 3.671-1.075 4.534-2.8l1.12-2.24c.55-1.093 1.2-2.15 1.937-3.128l.827-1.103-3.102-3.102c-.258 1.085-.853 2.08-1.716 2.827l-1.973 1.689c-1.52 1.297-2.391 3.19-2.391 5.19h-1.778c0-1.386.347-2.728.969-3.937-2.16-.596-4.187-1.529-6.044-2.8-.614.578-1.298 1.076-2.036 1.493v5.245c0 1.466-1.191 2.666-2.667 2.666-1.466 0-2.666-1.2-2.666-2.666v-1.05c-.276.099-.57.16-.89.16-1.466 0-2.666-1.2-2.666-2.666v-.435l-.098-.018c-1.609-.267-3.066-.88-4.329-1.76l-.817.347c-2.214.95-3.645 3.12-3.645 5.528 0 .455.054.907.16 1.352l1.245 5.377.329 1.432zM7.098 53.554h12.676c1.475 0 2.666-1.2 2.666-2.666v-4.534c-.284.062-.578.09-.889.09-.275 0-.55-.036-.826-.08-.418.4-.783.844-1.04 1.368l-1.191 2.383-6.072-1.21c-2.257-.453-4.568-.684-6.87-.684v-1.778c2.417 0 4.853.24 7.217.712l4.738.95.587-1.172c.23-.454.506-.872.817-1.262l-.169-.081-5.59.79c-2.587.374-5.023-.967-6.17-3.154l-1.12.275c-2.275.569-3.866 2.604-3.866 4.951 0 2.818 2.293 5.102 5.102 5.102zm21.804 1.778H7.098c-3.787 0-6.88-3.084-6.88-6.88 0-3.164 2.151-5.902 5.218-6.676l.95-.23-1.52-6.578c-.132-.578-.204-1.165-.204-1.752 0-3.12 1.858-5.928 4.72-7.155l.018-.009c-1.84-1.902-2.96-4.489-2.96-7.316 0-.4.045-.782.107-1.173-1.138-.604-1.885-1.787-1.885-3.12 0-1.422.854-2.649 2.063-3.209l-.018-.07c-.178-.703-.267-1.423-.267-2.143 0-4.853 3.956-8.8 8.81-8.8h5.501c2.516 0 4.925 1.102 6.587 2.978 1.458-.765 3.12-1.2 4.88-1.2 5.884 0 10.667 4.782 10.667 10.666 0 .89-.116 1.751-.32 2.57 2.32.941 3.875 3.19 3.875 5.76v2.124l1.005.995c.497.507.773 1.174.773 1.885 0 .71-.276 1.386-.773 1.884-.507.507-1.174.782-1.894.782-.71 0-1.377-.275-1.884-.782l-.107-.107-.675.898c-.676.898-1.271 1.858-1.77 2.854l-1.12 2.24c-1.164 2.337-3.51 3.786-6.124 3.786-1.235 0-2.462-.338-3.52-.978l-.924-.55c-.107 1.813-.285 3.617-.533 5.413.56.097 1.12.204 1.67.337 3.067.774 5.21 3.512 5.21 6.676 0 3.796-3.085 6.88-6.872 6.88zM11.845 18.889c.222 1.59 1.066 2.995 2.266 3.955.818-1.324 2.276-2.178 3.885-2.178 1.618 0 3.075.854 3.893 2.187 1.049-.836 1.813-2 2.151-3.36-.169-.196-.32-.4-.462-.604H11.845zm3.786 4.862c.738.302 1.53.47 2.365.47.835 0 1.635-.168 2.373-.47-.507-.8-1.387-1.307-2.373-1.307-.978 0-1.85.507-2.365 1.307zm3.254 2.195c-.285.036-.587.054-.89.054-.293 0-.595-.018-.888-.054v3.61c0 .489.4.888.889.888.498 0 .889-.399.889-.889v-3.609zm1.777 3.61v3.555c0 .49.4.889.89.889.497 0 .888-.4.888-.89V24.65c-.542.373-1.138.666-1.778.888v4.018zm2.667-16.89c0 4.898 3.991 8.89 8.889 8.89 4.862 0 8.818-3.92 8.889-8.765-.978-3.218-3.982-5.458-7.36-5.458h-.64c-3.431 0-6.222 2.791-6.222 6.222 0 2.454 2 4.445 4.444 4.445 2.453 0 4.445-1.991 4.445-4.445 0-.729-.294-1.404-.783-1.884-.48-.48-1.146-.782-1.875-.782-.774 0-1.422.266-1.911.755-.49.498-.765 1.147-.765 1.84v.098c0 .489.374.862.836.862.55 0 .942-.4.942-.889v-.889h1.778v.89c0 1.466-1.191 2.666-2.667 2.666-1.493 0-2.667-1.182-2.667-2.64v-.098c0-1.173.463-2.267 1.28-3.093.827-.827 1.93-1.28 3.094-1.28 2.524 0 4.515 1.99 4.515 4.444 0 3.431-2.79 6.222-6.222 6.222-3.431 0-6.222-2.79-6.222-6.222 0-4.409 3.591-8 8-8h.64c2.08 0 4.053.694 5.644 1.885-1.617-2.214-4.222-3.663-7.173-3.663-4.898 0-8.889 3.992-8.889 8.89zm-.018 40.89h5.591c2.81 0 5.094-2.285 5.094-5.103 0-1.618-.747-3.075-1.956-4.027-.542-.426-1.19-.746-1.902-.924-1.387-.346-2.809-.533-4.231-.587-.231 1.067-.845 1.982-1.689 2.622v1.45c2.062-.356 4.142-.543 6.222-.543v1.778c-2.08 0-4.169.195-6.222.569v2.098c0 1.005-.347 1.92-.907 2.666zm.907-27.796c1.289-.951 2.302-2.24 2.907-3.725-.596-.329-1.156-.702-1.671-1.129-.303.774-.72 1.485-1.236 2.125v2.729zm8-2.427c-1.209 0-2.373-.213-3.458-.587-.338.81-.782 1.574-1.306 2.276 1.804 1.191 3.777 2.062 5.893 2.569.302-.365.631-.711.995-1.022l1.974-1.69c.79-.675 1.235-1.662 1.235-2.702v-.284c-1.564.907-3.386 1.44-5.333 1.44zm13.964 2.036l-5.822-5.823c-.382.454-.8.871-1.253 1.263l5.822 5.822c.338.338.916.338 1.253 0 .17-.17.258-.391.258-.631s-.089-.454-.258-.631zM41.4 18.07l3.262 3.27v-.346c0-1.795-1.057-3.378-2.666-4.07-.17.4-.374.781-.596 1.146z" transform="translate(3.733)"/>
    </g>
</svg>
