<?xml version="1.0" encoding="UTF-8"?><svg id="Layer_2" xmlns="http://www.w3.org/2000/svg" viewBox="0 0 193.65 73.1"><defs><style>.cls-1{fill:#1e1f22;}</style></defs><g id="Layer_39"><path class="cls-1" d="M59.75,73.1H0v-.21c2.37-1.06,4.37-2.8,5.74-5,1.4-2.26,2.13-4.87,2.09-7.53V12.71c.03-2.65-.69-5.25-2.09-7.5C4.37,3,2.37,1.26,0,.21v-.21H32V.21c-2.33,1.08-4.3,2.82-5.65,5-1.4,2.26-2.12,4.87-2.08,7.52v56.48h13.16c3.96,.11,7.85-1.08,11.07-3.39,3.1-2.3,5.68-5.22,7.58-8.57,2.25-4.03,4.15-8.24,5.69-12.59h.21l-2.23,28.44Z"/><path class="cls-1" d="M125.87,22.33c-2.09-6.13-4.69-10.74-7.78-13.84-3.1-3.11-7.36-4.8-11.75-4.66h-12.75V31.41h4.49c3.49,0,6.15-.78,8-2.35s3.71-4.37,5.59-8.41h.2v27.56h-.22c-1.68-4.67-3.49-8-5.44-10-2-2-4.66-3-8.15-3h-4.49v25.14c-.04,2.65,.68,5.26,2.08,7.52,1.35,2.18,3.31,3.92,5.64,5v.21h-31.83v-.21c2.37-1.06,4.37-2.8,5.75-5,1.4-2.26,2.13-4.87,2.09-7.52V12.71c.03-2.65-.7-5.25-2.09-7.5-1.37-2.2-3.38-3.95-5.75-5v-.21h55.19l1.46,22.36-.24-.03Z"/><path class="cls-1" d="M193.65,52.82c0,6.35-2.07,11.31-6.21,14.89-4.14,3.58-9.66,5.37-16.56,5.38h-37.3v-.21c2.38-1.05,4.38-2.79,5.75-5,1.4-2.26,2.12-4.87,2.09-7.52V12.71c.03-2.65-.69-5.25-2.08-7.5-1.37-2.21-3.37-3.95-5.75-5v-.21h37.92c5.44,0,9.85,1.48,13.22,4.44,3.35,2.88,5.21,7.12,5.07,11.54,.02,3.79-1.34,7.47-3.82,10.34-2.54,3.06-6.25,5.29-11.12,6.69,6.13,1.33,10.79,3.74,14,7.21,3.17,3.42,4.89,7.94,4.79,12.6Zm-35.92-21.31h5.64c2.97,.14,5.9-.74,8.3-2.5,2.13-1.68,3.19-4.84,3.19-9.51,.06-2.98-.62-5.92-2-8.56-2.45-4.65-7.28-7.56-12.54-7.53h-2.61l.02,28.1Zm19.74,23.41c.04-3.39-.69-6.75-2.14-9.82-1.35-2.91-3.49-5.39-6.17-7.16-2.77-1.81-6.03-2.74-9.34-2.67h-2.09v34.17h6.92c3.38,.15,6.7-.97,9.3-3.14,2.35-2.06,3.53-5.85,3.52-11.38h0Z"/></g></svg>