<svg xmlns="http://www.w3.org/2000/svg" width="24" height="24" viewBox="0 0 24 24">
    <path fill="#FFF" d="M13.072 3.268V0h-2.144v3.268h2.144zm-8.017 3.32l1.532-1.533L4.29 2.757 2.757 4.29l2.298 2.298zm13.89 0l2.298-2.299-1.532-1.532-2.298 2.298 1.532 1.532zm-4.75 14.144c.307-.034.562-.153.767-.358.204-.204.306-.46.306-.765v-1.94c.987-.58 1.779-1.363 2.375-2.35.595-.987.893-2.093.893-3.319-.034-1.838-.672-3.379-1.915-4.621C15.38 6.136 13.838 5.498 12 5.464c-1.838.034-3.379.672-4.621 1.915C6.136 8.62 5.498 10.162 5.464 12c0 1.226.298 2.332.893 3.32.596.986 1.388 1.77 2.375 2.348v1.94c0 .307.102.562.306.766.205.205.46.324.766.358h4.392zM24 13.072v-2.144h-3.268v2.144H24zm-20.732 0v-2.144H0v2.144h3.268zM13.072 24c.307-.034.562-.153.766-.357.205-.205.324-.46.358-.766v-1.073H9.804v1.073c.034.306.153.561.358.766.204.204.46.323.766.357h2.144z"/>
</svg>
