<svg xmlns="http://www.w3.org/2000/svg" width="107" height="30" viewBox="0 0 107 30">
    <path fill="#1E1F22" fill-rule="evenodd" d="M80.113.67l.702 7.626h-.081c-.992-2.43-2.048-4.21-3.163-5.342-1.117-1.132-2.446-1.697-3.99-1.697h-2.52v23.63c0 1.118.275 2.124.826 3.017.551.895 1.296 1.564 2.232 2.012V30h-12.65v-.084c.966-.448 1.722-1.117 2.274-2.012.551-.893.827-1.899.827-3.017V1.257h-2.562c-1.516 0-2.833.565-3.95 1.697-1.115 1.132-2.169 2.911-3.162 5.342h-.082L55.476.67h24.637zM13.393 0l9.963 23.463c1.31 3.079 2.628 5.126 3.96 6.14 1.231-1.122 2.337-2.917 3.315-5.385L40.264 0h.082l9.962 23.463c1.462 3.436 2.936 5.587 4.424 6.453V30H41.545v-.084c2.48-.922 3.196-2.738 2.15-5.447l-1.24-3.1H32.408l-1.24 3.142c-1.047 2.654-.303 4.455 2.232 5.405V30h-18.81v-.084c2.483-.922 3.198-2.738 2.152-5.447l-1.24-3.1H5.456l-1.24 3.142c-1.047 2.654-.303 4.455 2.232 5.405V30H0v-.084c1.378-1.09 2.605-2.989 3.68-5.698L13.31 0h.084zm81.313.67v.084c-.938.447-1.68 1.118-2.233 2.012-.55.893-.827 1.898-.827 3.016v23.632h4.92c1.074 0 2.074-.217 2.996-.65.924-.434 1.717-.97 2.377-1.614.663-.643 1.289-1.466 1.882-2.472.592-1.005 1.081-1.962 1.468-2.87.385-.907.784-1.976 1.198-3.205h.083L105.701 30H82.056v-.084c.964-.448 1.722-1.117 2.274-2.011.55-.894.826-1.9.826-3.018V5.782c0-1.118-.276-2.123-.826-3.016-.552-.894-1.31-1.565-2.274-2.012V.67h12.65zM10.459 8.716L5.705 20.782h9.55L10.458 8.715zm26.952 0l-4.754 12.067h9.55L37.41 8.715z"/>
</svg>
