<svg xmlns="http://www.w3.org/2000/svg" width="24" height="25" viewBox="0 0 24 25">
    <path fill="#FFF" d="M5.512 16.826V4.738H15.86V3H5.51c-.484.027-.889.202-1.212.526-.323.323-.485.727-.485 1.212v12.088h1.698zM18.448 22c.485-.027.896-.202 1.233-.526.337-.323.505-.727.505-1.212V8.174c0-.485-.168-.889-.505-1.212-.337-.324-.748-.485-1.233-.485h-9.46c-.485 0-.896.161-1.233.485-.337.323-.505.727-.505 1.212v12.088c0 .485.168.89.505 1.212.337.324.748.499 1.233.526h9.46zm0-1.738h-9.46V8.174h9.46v12.088z"/>
</svg>
