<svg xmlns="http://www.w3.org/2000/svg" width="20" height="18" viewBox="0 0 20 18">
    <path fill="#363940" d="M20 2.797c-.736.327-1.527.547-2.357.646.848-.507 1.499-1.311 1.804-2.27-.792.47-1.67.812-2.605.996-.748-.797-1.815-1.296-2.995-1.296-2.65 0-4.596 2.472-3.998 5.038C6.44 5.74 3.417 4.107 1.393 1.624.317 3.468.835 5.881 2.662 7.102 1.99 7.081 1.357 6.897.804 6.59.76 8.49 2.122 10.27 4.095 10.664c-.577.157-1.21.194-1.853.07.521 1.63 2.036 2.816 3.833 2.85C4.35 14.935 2.177 15.54 0 15.283c1.816 1.164 3.973 1.843 6.29 1.843 7.618 0 11.923-6.434 11.662-12.205.802-.58 1.498-1.302 2.048-2.125z"/>
</svg>
